 <svg xmlns="http://www.w3.org/2000/svg" width="64" height="64" viewBox="0 0 64 64"
                                aria-hidden="true" focusable="false">
                                <path
                                    d="M24.77 52.541a1 1 0 01-.99-1.142l1.453-10.181a.99.99 0 01.283-.565l26.183-26.182a7.112 7.112 0 015.031-2.16 7.146 7.146 0 015.1 2.03c1.373 1.335 2.144 3.126 2.17 5.042s-.694 3.727-2.03 5.1L35.658 50.795a1.007 1.007 0 01-.566.283l-10.181 1.453a.965.965 0 01-.141.01zm2.396-10.709l-1.218 8.53 8.531-1.217 26.054-26.054a5.15 5.15 0 001.468-3.681 5.14 5.14 0 00-1.565-3.635c-.99-.964-2.315-1.505-3.678-1.464a5.136 5.136 0 00-3.635 1.564L27.166 41.832zm7.784 8.256h.01-.01z">
                                </path>
                                <path
                                    d="M42.14 63.971H5.114A5.12 5.12 0 010 58.857V9.488a5.12 5.12 0 015.114-5.114h8.228a1 1 0 010 2H5.114A3.118 3.118 0 002 9.488v49.369a3.117 3.117 0 003.114 3.113H42c1.683 0 3-1.368 3-3.114v-8.228a1 1 0 112 0v8.228c0 2.782-2.067 4.979-4.75 5.108a.802.802 0 01-.11.007z">
                                </path>
                                <path
                                    d="M46 10.288a1 1 0 01-1-1c0-1.775-1.265-3.114-2.942-3.114H35a1 1 0 110-2h7.058C44.829 4.174 47 6.42 47 9.288a1 1 0 01-1 1z">
                                </path>
                                <path
                                    d="M32.025 24h-20.05c-.539 0-.975-.448-.975-1s.436-1 .975-1h20.05c.539 0 .975.448.975 1s-.436 1-.975 1z">
                                </path>
                                <path
                                    d="M20.925 35h-8.849C11.482 35 11 34.553 11 34s.482-1 1.075-1h8.849c.594 0 1.076.447 1.076 1s-.482 1-1.075 1z">
                                </path>
                                <path
                                    d="M34.5 11h-20c-.827 0-1.5-.673-1.5-1.5v-8c0-.827.673-1.5 1.5-1.5h20c.827 0 1.5.673 1.5 1.5v8c0 .827-.673 1.5-1.5 1.5zM15 9h19V2H15v7z">
                                </path>
                            </svg>