  <svg xmlns="http://www.w3.org/2000/svg" width="64" height="64" viewBox="0 0 64 64"
                                aria-hidden="true" focusable="false">
                                <path
                                    d="M23 55c.5 0 .9.4 1 .9V62c0 .6-.4 1-1 1-.5 0-.9-.4-1-.9V56c0-.6.4-1 1-1zm16 0c.6 0 1 .4 1 1v6c0 .6-.4 1-1 1s-1-.4-1-1v-6c0-.6.4-1 1-1zM23 43c.5 0 .9.4 1 .9V50c0 .6-.4 1-1 1-.5 0-.9-.4-1-.9V44c0-.6.4-1 1-1zm16 0c.5 0 .9.4 1 .9V50c0 .6-.4 1-1 1-.5 0-.9-.4-1-.9V44c0-.6.4-1 1-1zM31 1c.8 0 1.6.4 2.1.9l.1.1 14.2 16.3c1.1 1.1.5 2.5-1 2.6H40v15c0 .6-.4 1-1 1-.5 0-.9-.4-1-.9V20c0-.5.4-.9.9-1h6.5L31.7 3.4c-.2-.3-.4-.4-.7-.4-.3 0-.5.1-.7.3l-.1.1L15.7 19H23c.5 0 .9.4 1 .9V36c0 .6-.4 1-1 1-.5 0-.9-.4-1-.9V21h-7.3c-1.5 0-2.2-1.4-1.3-2.5l.1-.1L28.7 2c.6-.6 1.4-1 2.3-1z"
                                    fill-rule="evenodd" clip-rule="evenodd"></path>
                            </svg>