<svg xmlns="http://www.w3.org/2000/svg" width="64" height="64" viewBox="0 0 64 64" aria-hidden="true" focusable="false">
  <path d="M19.959 21.205l19.48-19.481c.142-.144.337-.224.539-.224s.396.08.539.223l21.759 21.759c.298.298.298.78 0 1.078L42.795 44.042c-.275.275-.715.299-1.018.054-1.432-1.156-3.495-1.045-4.798.258-1.302 1.302-1.414 3.366-.258 4.798.246.303.222.742-.054 1.018L24.561 62.277c-.143.143-.337.223-.539.223s-.396-.08-.539-.223l-21.76-21.76c-.148-.149-.223-.345-.223-.539 0-.194.075-.39.225-.54l12.106-12.106c.275-.275.715-.299 1.018-.054 1.432 1.156 3.495 1.045 4.798-.258 1.302-1.303 1.414-3.366.258-4.798-.245-.302-.222-.741.054-1.017zm40.699 2.817L39.978 3.341 21.488 21.83c1.061 1.749.97 3.96-.216 5.617l1.642 1.642c.298.298.298.78 0 1.078s-.78.298-1.078 0l-1.631-1.631c-1.671 1.281-3.951 1.417-5.748.326L3.341 39.978l20.68 20.681 11.116-11.116c-1.091-1.799-.955-4.079.326-5.749l-1.542-1.542c-.149-.149-.223-.344-.223-.539 0-.195.075-.39.223-.539.298-.298.78-.298 1.078 0l1.552 1.552c1.658-1.186 3.868-1.277 5.617-.216l18.49-18.488zM27.249 34.04c.334.334.334.875 0 1.209s-.875.334-1.21 0L23.75 32.96c-.167-.167-.251-.386-.251-.605 0-.219.084-.438.251-.605.334-.334.875-.334 1.21 0l2.289 2.29zm1.251 2.316c0-.219.083-.438.251-.605.334-.334.875-.334 1.21 0l2.289 2.289c.334.334.334.875 0 1.209-.334.334-.875.334-1.21 0l-2.289-2.289c-.167-.167-.251-.385-.251-.604zm-5.393.226c.256.13.423.392.412.68l-.042 3.313 2.705 1.913c.234.166.356.449.309.733-.045.283-.247.517-.521.602l-3.163.983-.983 3.164c-.085.273-.319.476-.602.521-.283.044-.567-.075-.733-.31l-1.913-2.705-3.312.042c-.287.004-.551-.156-.681-.411-.055-.108-.082-.225-.082-.342 0-.159.05-.318.15-.451l1.981-2.655-1.065-3.137c-.093-.272-.023-.572.181-.775.203-.203.503-.273.774-.181l3.137 1.064 2.655-1.981c.23-.171.537-.197.793-.067zm-1.143 4.37l.028-2.183-1.749 1.305c-.198.148-.457.189-.692.11l-2.067-.701.701 2.067c.026.079.04.16.04.242 0 .16-.051.319-.15.451l-1.305 1.749 2.183-.028c.248-.003.481.116.625.319l1.26 1.782.648-2.084c.073-.237.259-.422.496-.496l2.084-.648-1.782-1.26c-.205-.144-.321-.393-.32-.625zM27.5 22.759c0-.19.072-.38.216-.524l11.518-11.517c.29-.29.758-.29 1.048 0 .29.29.29.758 0 1.048L28.765 23.283c-.29.29-.758.29-1.048 0-.144-.145-.217-.335-.217-.524zm4.217 3.475l11.517-11.517c.29-.29.758-.29 1.048 0s.29.758 0 1.048L32.765 27.283c-.29.29-.758.29-1.048 0-.145-.145-.217-.334-.217-.524s.073-.38.217-.525zm4 4l11.517-11.517c.29-.29.758-.29 1.048 0 .29.29.29.758 0 1.048L36.765 31.283c-.29.29-.758.29-1.048 0-.145-.145-.217-.334-.217-.524s.073-.38.217-.525zm4 4l11.517-11.517c.29-.29.758-.29 1.048 0 .29.29.29.758 0 1.048L40.765 35.283c-.29.29-.758.29-1.048 0-.145-.145-.217-.334-.217-.524s.073-.38.217-.525z"></path>
</svg>